<svg width="226" height="24" viewBox="0 0 226 24" fill="none" xmlns="http://www.w3.org/2000/svg">
<path d="M12.5 22C17.921 22 22.5 17.421 22.5 12C22.5 6.579 17.921 2 12.5 2C7.079 2 2.5 6.579 2.5 12C2.5 17.421 7.079 22 12.5 22ZM12.5 4C16.837 4 20.5 7.663 20.5 12C20.5 16.337 16.837 20 12.5 20C8.163 20 4.5 16.337 4.5 12C4.5 7.663 8.163 4 12.5 4Z" fill="white"/>
<path d="M12.5 17C13.401 17 15.081 16.832 16.207 15.708L14.793 14.292C14.35 14.735 13.492 15 12.5 15C10.874 15 9.5 13.626 9.5 12C9.5 10.374 10.874 9 12.5 9C13.493 9 14.351 9.265 14.793 9.707L16.207 8.293C15.082 7.168 13.401 7 12.5 7C9.743 7 7.5 9.243 7.5 12C7.5 14.757 9.743 17 12.5 17Z" fill="white"/>
<path d="M38.564 16.288H34.788L34.228 18H30.5L34.644 6.672H38.74L42.868 18H39.124L38.564 16.288ZM37.7 13.616L36.676 10.464L35.652 13.616H37.7ZM47.227 6.16V18H43.675V6.16H47.227ZM52.3833 6.16V18H48.8313V6.16H52.3833ZM60.2583 10.64C60.6209 10.1173 61.0636 9.70133 61.5863 9.392C62.1089 9.072 62.6529 8.912 63.2183 8.912V12.704H62.2103C61.5383 12.704 61.0423 12.8213 60.7223 13.056C60.4129 13.2907 60.2583 13.7067 60.2583 14.304V18H56.7063V8.976H60.2583V10.64ZM65.967 8.256C65.3483 8.256 64.8523 8.09067 64.479 7.76C64.1057 7.42933 63.919 7.01333 63.919 6.512C63.919 6 64.1057 5.57867 64.479 5.248C64.8523 4.90667 65.3483 4.736 65.967 4.736C66.575 4.736 67.0657 4.90667 67.439 5.248C67.8123 5.57867 67.999 6 67.999 6.512C67.999 7.01333 67.8123 7.42933 67.439 7.76C67.0657 8.09067 66.575 8.256 65.967 8.256ZM67.727 8.976V18H64.175V8.976H67.727ZM72.5793 8.864C73.1659 8.864 73.6726 8.98667 74.0993 9.232C74.5259 9.46667 74.8513 9.792 75.0753 10.208V8.976H78.6113V17.84C78.6113 18.6827 78.4566 19.4507 78.1473 20.144C77.8379 20.8373 77.3366 21.392 76.6433 21.808C75.9606 22.224 75.0806 22.432 74.0033 22.432C72.5526 22.432 71.4006 22.0907 70.5473 21.408C69.7046 20.736 69.2246 19.8187 69.1073 18.656H72.5953C72.6913 19.1253 73.0753 19.36 73.7473 19.36C74.1633 19.36 74.4886 19.2533 74.7233 19.04C74.9579 18.8267 75.0753 18.4267 75.0753 17.84V16.768C74.8513 17.184 74.5259 17.5147 74.0993 17.76C73.6726 17.9947 73.1659 18.112 72.5793 18.112C71.8753 18.112 71.2406 17.9307 70.6753 17.568C70.1099 17.1947 69.6619 16.6613 69.3313 15.968C69.0113 15.264 68.8513 14.4373 68.8513 13.488C68.8513 12.5387 69.0113 11.7173 69.3313 11.024C69.6619 10.32 70.1099 9.78667 70.6753 9.424C71.2406 9.05067 71.8753 8.864 72.5793 8.864ZM75.0753 13.488C75.0753 13.008 74.9526 12.6347 74.7073 12.368C74.4619 12.1013 74.1473 11.968 73.7633 11.968C73.3793 11.968 73.0646 12.1013 72.8193 12.368C72.5739 12.6347 72.4513 13.008 72.4513 13.488C72.4513 13.968 72.5739 14.3413 72.8193 14.608C73.0646 14.8747 73.3793 15.008 73.7633 15.008C74.1473 15.008 74.4619 14.8747 74.7073 14.608C74.9526 14.3413 75.0753 13.968 75.0753 13.488ZM86.5263 8.912C87.5609 8.912 88.3663 9.25867 88.9423 9.952C89.5289 10.6453 89.8223 11.584 89.8223 12.768V18H86.2863V13.216C86.2863 12.7893 86.1689 12.4533 85.9343 12.208C85.7103 11.952 85.4063 11.824 85.0223 11.824C84.6276 11.824 84.3183 11.952 84.0943 12.208C83.8703 12.4533 83.7583 12.7893 83.7583 13.216V18H80.2063V6.16H83.7583V10.352C84.0356 9.92533 84.4036 9.57867 84.8623 9.312C85.3316 9.04533 85.8863 8.912 86.5263 8.912ZM96.9785 14.976V18H95.6345C93.1598 18 91.9225 16.768 91.9225 14.304V11.936H90.8025V8.976H91.9225V6.8H95.4745V8.976H96.9465V11.936H95.4745V14.368C95.4745 14.5813 95.5225 14.736 95.6185 14.832C95.7252 14.928 95.8958 14.976 96.1305 14.976H96.9785ZM102.347 18.112C101.494 18.112 100.737 17.9733 100.075 17.696C99.4246 17.4187 98.9073 17.0347 98.5233 16.544C98.1393 16.0533 97.9206 15.4987 97.8673 14.88H101.275C101.318 15.1467 101.43 15.344 101.611 15.472C101.803 15.6 102.043 15.664 102.331 15.664C102.513 15.664 102.657 15.6267 102.763 15.552C102.87 15.4667 102.923 15.3653 102.923 15.248C102.923 15.0453 102.811 14.9013 102.587 14.816C102.363 14.7307 101.985 14.6347 101.451 14.528C100.801 14.4 100.262 14.2613 99.8353 14.112C99.4193 13.9627 99.0513 13.7067 98.7313 13.344C98.4219 12.9813 98.2673 12.48 98.2673 11.84C98.2673 11.2853 98.4113 10.784 98.6993 10.336C98.9979 9.87733 99.4353 9.52 100.011 9.264C100.587 8.99733 101.286 8.864 102.107 8.864C103.323 8.864 104.273 9.16267 104.955 9.76C105.649 10.3573 106.065 11.136 106.203 12.096H103.051C102.998 11.8507 102.886 11.664 102.715 11.536C102.545 11.3973 102.315 11.328 102.027 11.328C101.846 11.328 101.707 11.3653 101.611 11.44C101.515 11.504 101.467 11.6053 101.467 11.744C101.467 11.9253 101.579 12.064 101.803 12.16C102.027 12.2453 102.385 12.336 102.875 12.432C103.526 12.56 104.075 12.704 104.523 12.864C104.971 13.024 105.361 13.3013 105.691 13.696C106.022 14.08 106.187 14.6133 106.187 15.296C106.187 15.8293 106.033 16.3093 105.723 16.736C105.414 17.1627 104.966 17.4987 104.379 17.744C103.803 17.9893 103.126 18.112 102.347 18.112ZM113.868 10.64C114.23 10.1173 114.673 9.70133 115.196 9.392C115.718 9.072 116.262 8.912 116.828 8.912V12.704H115.82C115.148 12.704 114.652 12.8213 114.332 13.056C114.022 13.2907 113.868 13.7067 113.868 14.304V18H110.316V8.976H113.868V10.64ZM126.52 13.408C126.52 13.6533 126.504 13.888 126.472 14.112H120.76C120.814 14.8907 121.139 15.28 121.736 15.28C122.12 15.28 122.398 15.104 122.568 14.752H126.328C126.2 15.392 125.928 15.968 125.512 16.48C125.107 16.9813 124.59 17.3813 123.96 17.68C123.342 17.968 122.659 18.112 121.912 18.112C121.016 18.112 120.216 17.9253 119.512 17.552C118.819 17.1787 118.275 16.6453 117.88 15.952C117.496 15.248 117.304 14.4267 117.304 13.488C117.304 12.5493 117.496 11.7333 117.88 11.04C118.275 10.336 118.819 9.79733 119.512 9.424C120.216 9.05067 121.016 8.864 121.912 8.864C122.808 8.864 123.603 9.05067 124.296 9.424C125 9.78667 125.544 10.3093 125.928 10.992C126.323 11.6747 126.52 12.48 126.52 13.408ZM122.92 12.56C122.92 12.2613 122.824 12.0373 122.632 11.888C122.44 11.728 122.2 11.648 121.912 11.648C121.283 11.648 120.915 11.952 120.808 12.56H122.92ZM131.66 18.112C130.806 18.112 130.049 17.9733 129.388 17.696C128.737 17.4187 128.22 17.0347 127.836 16.544C127.452 16.0533 127.233 15.4987 127.18 14.88H130.588C130.63 15.1467 130.742 15.344 130.924 15.472C131.116 15.6 131.356 15.664 131.644 15.664C131.825 15.664 131.969 15.6267 132.076 15.552C132.182 15.4667 132.236 15.3653 132.236 15.248C132.236 15.0453 132.124 14.9013 131.9 14.816C131.676 14.7307 131.297 14.6347 130.764 14.528C130.113 14.4 129.574 14.2613 129.148 14.112C128.732 13.9627 128.364 13.7067 128.044 13.344C127.734 12.9813 127.58 12.48 127.58 11.84C127.58 11.2853 127.724 10.784 128.012 10.336C128.31 9.87733 128.748 9.52 129.324 9.264C129.9 8.99733 130.598 8.864 131.42 8.864C132.636 8.864 133.585 9.16267 134.268 9.76C134.961 10.3573 135.377 11.136 135.516 12.096H132.364C132.31 11.8507 132.198 11.664 132.028 11.536C131.857 11.3973 131.628 11.328 131.34 11.328C131.158 11.328 131.02 11.3653 130.924 11.44C130.828 11.504 130.78 11.6053 130.78 11.744C130.78 11.9253 130.892 12.064 131.116 12.16C131.34 12.2453 131.697 12.336 132.188 12.432C132.838 12.56 133.388 12.704 133.836 12.864C134.284 13.024 134.673 13.3013 135.004 13.696C135.334 14.08 135.5 14.6133 135.5 15.296C135.5 15.8293 135.345 16.3093 135.036 16.736C134.726 17.1627 134.278 17.4987 133.692 17.744C133.116 17.9893 132.438 18.112 131.66 18.112ZM145.645 13.408C145.645 13.6533 145.629 13.888 145.597 14.112H139.885C139.939 14.8907 140.264 15.28 140.861 15.28C141.245 15.28 141.523 15.104 141.693 14.752H145.453C145.325 15.392 145.053 15.968 144.637 16.48C144.232 16.9813 143.715 17.3813 143.085 17.68C142.467 17.968 141.784 18.112 141.037 18.112C140.141 18.112 139.341 17.9253 138.637 17.552C137.944 17.1787 137.4 16.6453 137.005 15.952C136.621 15.248 136.429 14.4267 136.429 13.488C136.429 12.5493 136.621 11.7333 137.005 11.04C137.4 10.336 137.944 9.79733 138.637 9.424C139.341 9.05067 140.141 8.864 141.037 8.864C141.933 8.864 142.728 9.05067 143.421 9.424C144.125 9.78667 144.669 10.3093 145.053 10.992C145.448 11.6747 145.645 12.48 145.645 13.408ZM142.045 12.56C142.045 12.2613 141.949 12.0373 141.757 11.888C141.565 11.728 141.325 11.648 141.037 11.648C140.408 11.648 140.04 11.952 139.933 12.56H142.045ZM150.321 10.64C150.683 10.1173 151.126 9.70133 151.649 9.392C152.171 9.072 152.715 8.912 153.281 8.912V12.704H152.273C151.601 12.704 151.105 12.8213 150.785 13.056C150.475 13.2907 150.321 13.7067 150.321 14.304V18H146.769V8.976H150.321V10.64ZM158.814 14.624L160.254 8.976H164.03L161.022 18H156.59L153.582 8.976H157.358L158.814 14.624ZM173.708 13.408C173.708 13.6533 173.692 13.888 173.66 14.112H167.948C168.001 14.8907 168.327 15.28 168.924 15.28C169.308 15.28 169.585 15.104 169.756 14.752H173.516C173.388 15.392 173.116 15.968 172.7 16.48C172.295 16.9813 171.777 17.3813 171.148 17.68C170.529 17.968 169.847 18.112 169.1 18.112C168.204 18.112 167.404 17.9253 166.7 17.552C166.007 17.1787 165.463 16.6453 165.068 15.952C164.684 15.248 164.492 14.4267 164.492 13.488C164.492 12.5493 164.684 11.7333 165.068 11.04C165.463 10.336 166.007 9.79733 166.7 9.424C167.404 9.05067 168.204 8.864 169.1 8.864C169.996 8.864 170.791 9.05067 171.484 9.424C172.188 9.78667 172.732 10.3093 173.116 10.992C173.511 11.6747 173.708 12.48 173.708 13.408ZM170.108 12.56C170.108 12.2613 170.012 12.0373 169.82 11.888C169.628 11.728 169.388 11.648 169.1 11.648C168.471 11.648 168.103 11.952 167.996 12.56H170.108ZM174.351 13.488C174.351 12.5387 174.511 11.7173 174.831 11.024C175.162 10.32 175.61 9.78667 176.175 9.424C176.741 9.05067 177.375 8.864 178.079 8.864C178.666 8.864 179.167 8.98667 179.583 9.232C180.01 9.46667 180.335 9.792 180.559 10.208V6.16H184.111V18H180.559V16.768C180.335 17.184 180.01 17.5147 179.583 17.76C179.167 17.9947 178.666 18.112 178.079 18.112C177.375 18.112 176.741 17.9307 176.175 17.568C175.61 17.1947 175.162 16.6613 174.831 15.968C174.511 15.264 174.351 14.4373 174.351 13.488ZM180.575 13.488C180.575 13.008 180.453 12.6347 180.207 12.368C179.962 12.1013 179.647 11.968 179.263 11.968C178.879 11.968 178.565 12.1013 178.319 12.368C178.074 12.6347 177.951 13.008 177.951 13.488C177.951 13.968 178.074 14.3413 178.319 14.608C178.565 14.8747 178.879 15.008 179.263 15.008C179.647 15.008 179.962 14.8747 180.207 14.608C180.453 14.3413 180.575 13.968 180.575 13.488ZM188.073 15.168C189.502 14.1013 190.633 13.136 191.465 12.272C192.297 11.3973 192.713 10.5813 192.713 9.824C192.713 9.568 192.654 9.37067 192.537 9.232C192.43 9.09333 192.286 9.024 192.105 9.024C191.892 9.024 191.721 9.136 191.593 9.36C191.476 9.57333 191.433 9.904 191.465 10.352H188.025C188.057 9.36 188.27 8.544 188.665 7.904C189.07 7.264 189.593 6.79467 190.233 6.496C190.873 6.19733 191.577 6.048 192.345 6.048C193.71 6.048 194.708 6.37867 195.337 7.04C195.977 7.69067 196.297 8.528 196.297 9.552C196.297 10.6293 195.95 11.6427 195.257 12.592C194.574 13.5307 193.716 14.3253 192.681 14.976H196.345V17.84H188.073V15.168ZM197.2 11.984C197.2 10.1387 197.589 8.688 198.368 7.632C199.157 6.576 200.368 6.048 202 6.048C203.621 6.048 204.826 6.58133 205.616 7.648C206.405 8.704 206.8 10.1493 206.8 11.984C206.8 13.8293 206.405 15.2853 205.616 16.352C204.826 17.408 203.621 17.936 202 17.936C200.368 17.936 199.157 17.408 198.368 16.352C197.589 15.2853 197.2 13.8293 197.2 11.984ZM203.296 11.984C203.296 11.1307 203.21 10.4907 203.04 10.064C202.869 9.62667 202.522 9.408 202 9.408C201.466 9.408 201.114 9.62667 200.944 10.064C200.773 10.4907 200.688 11.1307 200.688 11.984C200.688 12.848 200.773 13.4987 200.944 13.936C201.114 14.3627 201.466 14.576 202 14.576C202.522 14.576 202.869 14.3627 203.04 13.936C203.21 13.4987 203.296 12.848 203.296 11.984ZM207.729 15.168C209.159 14.1013 210.289 13.136 211.121 12.272C211.953 11.3973 212.369 10.5813 212.369 9.824C212.369 9.568 212.311 9.37067 212.193 9.232C212.087 9.09333 211.943 9.024 211.761 9.024C211.548 9.024 211.377 9.136 211.249 9.36C211.132 9.57333 211.089 9.904 211.121 10.352H207.681C207.713 9.36 207.927 8.544 208.321 7.904C208.727 7.264 209.249 6.79467 209.889 6.496C210.529 6.19733 211.233 6.048 212.001 6.048C213.367 6.048 214.364 6.37867 214.993 7.04C215.633 7.69067 215.953 8.528 215.953 9.552C215.953 10.6293 215.607 11.6427 214.913 12.592C214.231 13.5307 213.372 14.3253 212.337 14.976H216.001V17.84H207.729V15.168ZM216.792 15.168C218.221 14.1013 219.352 13.136 220.184 12.272C221.016 11.3973 221.432 10.5813 221.432 9.824C221.432 9.568 221.373 9.37067 221.256 9.232C221.149 9.09333 221.005 9.024 220.824 9.024C220.61 9.024 220.44 9.136 220.312 9.36C220.194 9.57333 220.152 9.904 220.184 10.352H216.744C216.776 9.36 216.989 8.544 217.384 7.904C217.789 7.264 218.312 6.79467 218.952 6.496C219.592 6.19733 220.296 6.048 221.064 6.048C222.429 6.048 223.426 6.37867 224.056 7.04C224.696 7.69067 225.016 8.528 225.016 9.552C225.016 10.6293 224.669 11.6427 223.976 12.592C223.293 13.5307 222.434 14.3253 221.4 14.976H225.064V17.84H216.792V15.168Z" fill="white"/>
</svg>
